Coordinates
version=1
nRows=24
nColumns=22
inDegrees=yes

Units are S.I. units (second, meters, Newtons, ...)
If the header above contains a line with 'inDegrees', this indicates whether rotational values are in degrees (yes) or radians (no).

endheader
time	pelvis_tilt	pelvis_list	pelvis_rotation	pelvis_tx	pelvis_ty	pelvis_tz	hip_flexion_r	hip_adduction_r	hip_rotation_r	knee_angle_r	ankle_angle_r	subtalar_angle_r	hip_flexion_l	hip_adduction_l	hip_rotation_l	knee_angle_l	ankle_angle_l	subtalar_angle_l	lumbar_extension	lumbar_bending	lumbar_rotation
      2.09000000	      4.06759194	      1.24512862	     63.14364424	     -0.25411003	      0.98724825	      0.16152206	     24.22838132	      4.16603813	      2.71204628	    -27.04481382	     -1.06821399	      3.73942023	    -10.46059822	      0.31298325	      4.47229708	    -29.22114924	     16.19501825	     -0.74430733	    -13.40896081	      3.13423114	     -3.66255757
      2.10000000	      4.28769706	      1.15746011	     63.60627075	     -0.24847220	      0.98850295	      0.15389320	     23.71545992	      4.38366424	      2.24733636	    -27.26003482	     -0.49349962	      3.26444127	    -10.10535487	     -0.15431763	      4.47739600	    -30.71614864	     14.78595807	     -0.23029674	    -13.19448610	      3.51176942	     -3.62449845
      2.11000000	      4.52236915	      1.05171613	     64.08696333	     -0.24297243	      0.98987922	      0.14637661	     23.12809873	      4.61140003	      1.75112221	    -27.30602604	      0.10633409	      3.00110763	     -9.60569191	     -0.66105704	      4.39167684	    -32.37899659	     13.22713014	      0.09717700	    -12.98488889	      3.91323013	     -3.59449204
      2.12000000	      4.70282071	      0.92377752	     64.54260081	     -0.23756533	      0.99128090	      0.13901261	     22.53251874	      4.80237525	      1.24315513	    -27.22639918	      0.71162219	      2.65487535	     -8.92303135	     -1.14868187	      4.13432614	    -34.20566607	     11.53955805	      0.60949436	    -12.74132097	      4.25601281	     -3.51802295
      2.13000000	      4.90748146	      0.78050425	     65.01546479	     -0.23230709	      0.99274789	      0.13177761	     21.88269051	      5.01964121	      0.72730772	    -27.01595770	      1.28140753	      2.48762255	     -8.10794684	     -1.69577119	      3.77961470	    -36.17725929	      9.78724474	      0.90577130	    -12.51275944	      4.62883580	     -3.43554408
      2.14000000	      5.12684222	      0.63848217	     65.49006648	     -0.22719225	      0.99425138	      0.12469360	     21.18502307	      5.25778807	      0.23233229	    -26.70054057	      1.79155823	      2.39093866	     -7.17661897	     -2.29438587	      3.30122666	    -38.27914064	      8.03523336	      1.08458209	    -12.31753513	      5.01420278	     -3.33865798
      2.15000000	      5.33742183	      0.46668281	     65.96565732	     -0.22217786	      0.99567416	      0.11779774	     20.51157834	      5.51526982	     -0.24087039	    -26.33289026	      2.26878622	      2.29678426	     -6.09191162	     -2.94071374	      2.73078168	    -40.49806716	      6.36941443	      1.25304561	    -12.10917658	      5.38763546	     -3.20993347
      2.16000000	      5.52662293	      0.26301056	     66.44003033	     -0.21729521	      0.99695948	      0.11109324	     19.89065254	      5.78260471	     -0.66935564	    -25.94967092	      2.73410909	      2.19205045	     -4.85756617	     -3.61887168	      2.09853824	    -42.80733901	      4.85214940	      1.41233805	    -11.88386810	      5.74453304	     -3.03986816
      2.17000000	      5.77455435	      0.10582020	     66.91247550	     -0.21250448	      0.99826854	      0.10454795	     19.19157529	      6.10698173	     -1.05741373	    -25.51545680	      3.11808624	      2.12071604	     -3.61729306	     -4.39149389	      1.38374586	    -45.14169064	      3.55717247	      1.48801140	    -11.76200915	      6.13123002	     -2.86129449
      2.18000000	      5.99602339	     -0.09269961	     67.39336279	     -0.20784918	      0.99936387	      0.09821608	     18.58564125	      6.43908163	     -1.40165258	    -25.11450563	      3.50179761	      2.00923541	     -2.24022522	     -5.19823513	      0.65691058	    -47.49367483	      2.53778819	      1.59780525	    -11.61145384	      6.49868598	     -2.64448432
      2.19000000	      6.28439676	     -0.21316570	     67.86107033	     -0.20325539	      1.00052223	      0.09204429	     17.86839449	      6.83110128	     -1.68040110	    -24.66432832	      3.82886000	      1.92990608	     -0.93768883	     -6.08325251	     -0.09757973	    -49.76260587	      1.81495121	      1.65406574	    -11.60204696	      6.88691562	     -2.40730487
      2.20000000	      6.54034340	     -0.35750979	     68.32001412	     -0.19874640	      1.00149522	      0.08606219	     17.23827396	      7.20946607	     -1.97560723	    -24.26669548	      4.14606168	      1.80524927	      0.43718042	     -6.98929573	     -0.88082836	    -51.93294124	      1.43470918	      1.70810729	    -11.57336772	      7.23930630	     -2.14835155
      2.21000000	      6.82367179	     -0.43563831	     68.77071148	     -0.19432083	      1.00251449	      0.08023733	     16.52351405	      7.61332509	     -2.18311207	    -23.82235446	      4.45768670	      1.70262535	      1.73237556	     -7.90424794	     -1.61801937	    -53.92732094	      1.35421052	      1.65372614	    -11.65312906	      7.58076917	     -1.85931657
      2.22000000	      7.09367292	     -0.49003068	     69.20354934	     -0.18997355	      1.00348675	      0.07455967	     15.81674486	      8.00359755	     -2.39501349	    -23.39381510	      4.73996312	      1.58498299	      2.99664435	     -8.80399671	     -2.34581485	    -55.72052542	      1.56038898	      1.45914595	    -11.76901177	      7.88644358	     -1.54961540
      2.23000000	      7.33092051	     -0.52709064	     69.60849443	     -0.18575383	      1.00441940	      0.06901003	     15.12520479	      8.35851327	     -2.60823034	    -22.97202594	      4.99586942	      1.39738766	      4.23081792	     -9.64077712	     -3.04383565	    -57.28660215	      1.95174705	      0.87947117	    -11.90863803	      8.15202707	     -1.21274066
      2.24000000	      7.57432409	     -0.48623818	     69.97691231	     -0.18162042	      1.00545068	      0.06354073	     14.35217757	      8.70131203	     -2.78731707	    -22.53109165	      5.23363110	      1.27903844	      5.33235588	    -10.42099888	     -3.71304962	    -58.58920560	      2.50099173	      0.23485615	    -12.15010604	      8.38674848	     -0.83379128
      2.25000000	      7.77587085	     -0.41215245	     70.30819451	     -0.17761221	      1.00649336	      0.05813808	     13.56002888	      8.99622152	     -2.92603726	    -22.07405208	      5.48443100	      1.15884654	      6.36345180	    -11.08693693	     -4.33303869	    -59.62701444	      3.12608030	     -0.56496829	    -12.41921824	      8.56608671	     -0.43215833
      2.26000000	      7.94310100	     -0.31286204	     70.59719480	     -0.17373886	      1.00753499	      0.05282182	     12.77010395	      9.24853439	     -3.04771716	    -21.63001015	      5.71842479	      1.05784480	      7.33390602	    -11.64019884	     -4.90209470	    -60.41400284	      3.75919234	     -1.36020040	    -12.71553374	      8.70158584	      0.00501816
      2.27000000	      8.08042266	     -0.21703740	     70.84728195	     -0.17000176	      1.00853568	      0.04757824	     11.99865985	      9.47267903	     -3.13662588	    -21.17933161	      5.90905630	      0.98526057	      8.27529456	    -12.08121664	     -5.39693980	    -60.96568069	      4.36930531	     -2.00718249	    -13.00768358	      8.81103555	      0.48044215
      2.28000000	      8.15661752	     -0.09394112	     71.04904464	     -0.16640108	      1.00952426	      0.04233939	     11.22767100	      9.61672451	     -3.23400992	    -20.74340892	      6.15759597	      0.90622311	      9.14411093	    -12.37145867	     -5.86518300	    -61.26108915	      4.90757912	     -2.72172870	    -13.30360427	      8.85224042	      0.94892934
      2.29000000	      8.21670349	     -0.01034856	     71.22561524	     -0.16290355	      1.01040938	      0.03718671	     10.50949995	      9.75647327	     -3.31776730	    -20.30425790	      6.35209019	      0.86470448	     10.02794791	    -12.57927896	     -6.24896753	    -61.35336054	      5.40011213	     -3.09538324	    -13.55822118	      8.88763247	      1.44761796
      2.30000000	      8.24329979	      0.07389102	     71.37537222	     -0.15953751	      1.01123594	      0.03204213	      9.80430110	      9.85280774	     -3.41161383	    -19.86772870	      6.57846434	      0.82651854	     10.87373366	    -12.67735417	     -6.58353292	    -61.23272566	      5.84017364	     -3.37260223	    -13.79853408	      8.89318676	      1.93528700
      2.31000000	      8.25793615	      0.14562296	     71.51414796	     -0.15629117	      1.01199266	      0.02694553	      9.11463798	      9.93731046	     -3.49463376	    -19.41979936	      6.79010495	      0.79699659	     11.70319794	    -12.69034837	     -6.83290922	    -60.92394324	      6.23205969	     -3.50559693	    -14.02521488	      8.88878567	      2.43125364
      2.32000000	      8.23922201	      0.16876851	     71.66173774	     -0.15317842	      1.01259835	      0.02185336	      8.48680495	      9.99509867	     -3.58739745	    -18.96806370	      7.02230290	      0.78394336	     12.56840009	    -12.62035600	     -7.00322742	    -60.44857988	      6.60727270	     -3.49255435	    -14.17580883	      8.87378645	      2.87918501
